<?xml version="1.0" encoding="utf-8"?>
<!-- Generator: Adobe Illustrator 19.0.0, SVG Export Plug-In . SVG Version: 6.00 Build 0)  -->
<svg version="1.1" id="Layer_1" xmlns="http://www.w3.org/2000/svg" xmlns:xlink="http://www.w3.org/1999/xlink" x="0px" y="0px"
	 viewBox="0 0 298 383.9" style="enable-background:new 0 0 298 383.9;" xml:space="preserve">
<style type="text/css">
	.st0{fill:#CE0000;}
</style>
<g>
	<path class="st0" d="M29.7,92.7c79.7,0,158.9,0,238.6,0c0.1,1.3,0.2,2.5,0.2,3.7c0,77.8,0,155.5,0,233.3c0,24-17.4,41.2-41.3,41.2
		c-52,0-104,0-156,0c-24.2,0-41.4-17.1-41.4-41.4c-0.1-35.6,0-71.1,0-106.7c0-41.8,0-83.7,0-125.5C29.7,95.9,29.7,94.4,29.7,92.7z"
		/>
	<path class="st0" d="M10,72.1c0-13.1,0-25.9,0-39c1.5-0.1,2.8-0.2,4.2-0.2c20.4,0,40.8-0.1,61.2,0c2.8,0,4.8-0.7,6.8-2.7
		c5-5.2,10.1-10.3,15.3-15.3c1.1-1.1,3-1.9,4.5-1.9c31.4-0.1,62.7-0.1,94.1,0c1.5,0,3.4,0.8,4.5,1.9c5.4,5.1,10.5,10.6,16,15.7
		c1.4,1.3,3.6,2.2,5.4,2.2c20.4,0.2,40.8,0.1,61.2,0.1c1.5,0,3,0,4.8,0c0,13.1,0,26,0,39.2C195.5,72.1,102.9,72.1,10,72.1z"/>
</g>
</svg>
